<?xml version="1.0" encoding="UTF-8"?>
<svg version="1.1" xmlns="http://www.w3.org/2000/svg" width="195" height="195">
<path d="M0 0 C64.35 0 128.7 0 195 0 C195 64.35 195 128.7 195 195 C130.65 195 66.3 195 0 195 C0 130.65 0 66.3 0 0 Z " fill="#DB80A9" transform="translate(0,0)"/>
<path d="M0 0 C0.71285156 0.47050781 1.42570312 0.94101563 2.16015625 1.42578125 C13.90578213 9.06122849 23.84884797 12.65692247 37.9375 10.3125 C45.74273227 8.60093274 52.54143671 4.58897918 59 0 C62.19789182 7.7092035 63.74494156 15.05599891 60.8984375 23.12109375 C56.63056695 32.26164004 51.15730782 38.68051518 42 43 C40.68 43 39.36 43 38 43 C38 43.66 38 44.32 38 45 C26.72210418 45.541339 17.87706418 45.14571214 8.75 37.875 C2.58600725 32.08609809 -1.75973941 25.00077282 -2.16796875 16.50390625 C-2.17441406 15.20324219 -2.18085937 13.90257813 -2.1875 12.5625 C-2.20876953 10.61537109 -2.20876953 10.61537109 -2.23046875 8.62890625 C-2.01557702 5.24527201 -1.47166218 3.01894337 0 0 Z " fill="#FAFDFD" transform="translate(89,104)"/>
<path d="M0 0 C0.68964844 -0.00322266 1.37929687 -0.00644531 2.08984375 -0.00976562 C6.11252703 0.03253793 9.25507807 0.54479493 12.875 2.3125 C11.68720193 5.01204106 10.37712762 6.92828953 8.5 9.25 C2.78198665 17.17377517 0.57140762 27.70848267 1.875 37.3125 C3.50588141 44.95382077 5.95543531 51.27940771 10.703125 57.5078125 C11.875 59.3125 11.875 59.3125 11.875 62.3125 C2.56786108 64.97168255 -5.11355519 65.12944955 -14.125 61.3125 C-22.71722772 56.28513272 -28.34811554 49.5907089 -31.43359375 40.140625 C-33.53861665 31.53024886 -32.27579039 22.82883706 -27.87109375 15.1171875 C-21.20145616 5.5579794 -11.75695235 -0.27781078 0 0 Z " fill="#FBFDFE" transform="translate(76.125,84.6875)"/>
<path d="M0 0 C7.53735643 4.47680565 13.41688187 10.17797294 16.453125 18.45703125 C16.865625 19.44703125 17.278125 20.43703125 17.703125 21.45703125 C19.90089201 30.24809929 18.1457876 38.85368205 13.765625 46.64453125 C8.78485328 54.38573067 2.53134292 59.34637556 -6.546875 61.45703125 C-13.42440479 62.02250133 -20.17067383 62.49331752 -26.546875 59.45703125 C-25.27023606 56.78663054 -23.84833303 54.39163272 -22.171875 51.95703125 C-16.20141529 42.40783901 -13.92442957 32.30045087 -16.20703125 21.265625 C-18.3493836 13.41033305 -21.83489339 7.06174705 -26.546875 0.45703125 C-18.12694859 -4.13565588 -8.69410088 -3.96843637 0 0 Z " fill="#FBFDFD" transform="translate(132.546875,44.54296875)"/>
<path d="M0 0 C5.66173366 4.77261664 9.38470885 10.76504324 11 18 C11.55916975 24.8799113 12.03759723 31.62104581 9 38 C6.30307394 36.81335253 4.42580424 35.52566437 2.125 33.625 C-5.51958336 28.08473206 -16.68318067 25.61814759 -26 27 C-35.14696765 28.93713977 -42.42019492 32.59236351 -50 38 C-53.31489648 29.83114796 -54.45964882 22.49210137 -51.5625 14 C-47.5926114 5.15480961 -41.10843831 -1.14302097 -32.359375 -5.16015625 C-21.09819768 -9.16868791 -9.71527753 -6.53858121 0 0 Z " fill="#FBFDFD" transform="translate(97,49)"/>
<path d="M0 0 C0.33 0 0.66 0 1 0 C1 5.61 1 11.22 1 17 C2.65 17.33 4.3 17.66 6 18 C6 17.34 6 16.68 6 16 C6.99 16 7.98 16 9 16 C9 15.34 9 14.68 9 14 C10.6875 12.3125 10.6875 12.3125 13 11 C15.75 11.3125 15.75 11.3125 18 12 C15.1727056 13.88486293 12.344826 15.76668624 9.5 17.625 C8.06140625 18.57246094 8.06140625 18.57246094 6.59375 19.5390625 C4 21 4 21 1 21 C-1.04410288 14.10115279 -2.32680019 6.98040058 0 0 Z " fill="#E4F9FB" transform="translate(45,65)"/>
<path d="M0 0 C1.60080151 4.00200378 0.29279692 7.04556236 -1 11 C-2.65 10.67 -4.3 10.34 -6 10 C-4.34832443 6.4213696 -2.21713508 3.25179812 0 0 Z " fill="#E2F8F9" transform="translate(112,94)"/>
<path d="M0 0 C3.44428265 1.44781793 5.36130962 3.27694609 7.75 6.125 C8.36359375 6.84945312 8.9771875 7.57390625 9.609375 8.3203125 C10.29773438 9.15175781 10.29773438 9.15175781 11 10 C10.01 10.495 10.01 10.495 9 11 C8.2575 10.05125 7.515 9.1025 6.75 8.125 C4.72154781 5.67467599 3.0422152 4.12674637 0 3 C0 2.01 0 1.02 0 0 Z " fill="#E5FBF9" transform="translate(136,48)"/>
<path d="M0 0 C0.66 0.33 1.32 0.66 2 1 C0.75627811 1.98712878 -0.49527218 2.96439905 -1.75 3.9375 C-2.44609375 4.48277344 -3.1421875 5.02804688 -3.859375 5.58984375 C-5.96092128 6.97425654 -7.54321799 7.56286987 -10 8 C-10 7.34 -10 6.68 -10 6 C-8.5459375 5.5978125 -8.5459375 5.5978125 -7.0625 5.1875 C-5.5465625 4.5996875 -5.5465625 4.5996875 -4 4 C-3.67 3.01 -3.34 2.02 -3 1 C-2.01 0.67 -1.02 0.34 0 0 Z " fill="#E7FCFD" transform="translate(139,139)"/>
<path d="M0 0 C6.75 0.875 6.75 0.875 9 2 C7.55746343 5.36591866 5.66735273 7.51047079 3 10 C3.33 8.35 3.66 6.7 4 5 C4.66 5 5.32 5 6 5 C6 4.01 6 3.02 6 2 C3.03 1.505 3.03 1.505 0 1 C0 0.67 0 0.34 0 0 Z " fill="#E0F9FA" transform="translate(80,85)"/>
<path d="M0 0 C1.65 1.65 3.3 3.3 5 5 C4.67 5.66 4.34 6.32 4 7 C1.35139573 7.59355614 -1.29197322 7.74209269 -4 8 C-0.25 6 -0.25 6 2 6 C1.34 4.02 0.68 2.04 0 0 Z " fill="#DFFAFB" transform="translate(84,140)"/>
<path d="M0 0 C3 1 3 1 4.25 3.375 C5 6 5 6 4 9 C1.525 5.04 1.525 5.04 -1 1 C-0.67 0.67 -0.34 0.34 0 0 Z " fill="#E2F9F9" transform="translate(107,44)"/>
</svg>
