<svg xmlns="http://www.w3.org/2000/svg" viewBox="0 0 400 300">
  <!-- Fond dégradé -->
  <defs>
    <linearGradient id="bg-gradient" x1="0%" y1="0%" x2="100%" y2="100%">
      <stop offset="0%" stop-color="#f0f4ff" />
      <stop offset="100%" stop-color="#d8e3ff" />
    </linearGradient>
    
    <!-- Dégradé pour les barres de progression -->
    <linearGradient id="bar-gradient" x1="0%" y1="0%" x2="100%" y2="0%">
      <stop offset="0%" stop-color="#4361ee" />
      <stop offset="100%" stop-color="#7209b7" />
    </linearGradient>
    
    <!-- Animation de scintillement -->
    <filter id="glow" x="-20%" y="-20%" width="140%" height="140%">
      <feGaussianBlur stdDeviation="3" result="blur" />
      <feComposite in="SourceGraphic" in2="blur" operator="over" />
    </filter>
  </defs>
  
  <!-- Arrière-plan -->
  <rect width="400" height="300" fill="url(#bg-gradient)" rx="15" ry="15" />
  
  <!-- Cercle décoratif de fond -->
  <circle cx="350" cy="50" r="80" fill="#4361ee" opacity="0.1" />
  <circle cx="50" cy="250" r="60" fill="#7209b7" opacity="0.1" />
  
  <!-- Barres de progression -->
  <g transform="translate(80, 80)">
    <!-- Barre 1 -->
    <rect x="0" y="0" width="240" height="12" rx="6" ry="6" fill="#e2e8f0" />
    <rect x="0" y="0" width="200" height="12" rx="6" ry="6" fill="url(#bar-gradient)" filter="url(#glow)">
      <animate attributeName="width" values="0;200" dur="1.5s" begin="0.2s" fill="freeze" />
    </rect>
    
    <!-- Barre 2 -->
    <rect x="0" y="40" width="240" height="12" rx="6" ry="6" fill="#e2e8f0" />
    <rect x="0" y="40" width="160" height="12" rx="6" ry="6" fill="url(#bar-gradient)" filter="url(#glow)">
      <animate attributeName="width" values="0;160" dur="1.5s" begin="0.4s" fill="freeze" />
    </rect>
    
    <!-- Barre 3 -->
    <rect x="0" y="80" width="240" height="12" rx="6" ry="6" fill="#e2e8f0" />
    <rect x="0" y="80" width="220" height="12" rx="6" ry="6" fill="url(#bar-gradient)" filter="url(#glow)">
      <animate attributeName="width" values="0;220" dur="1.5s" begin="0.6s" fill="freeze" />
    </rect>
    
    <!-- Barre 4 -->
    <rect x="0" y="120" width="240" height="12" rx="6" ry="6" fill="#e2e8f0" />
    <rect x="0" y="120" width="180" height="12" rx="6" ry="6" fill="url(#bar-gradient)" filter="url(#glow)">
      <animate attributeName="width" values="0;180" dur="1.5s" begin="0.8s" fill="freeze" />
    </rect>
  </g>
  
  <!-- Éléments décoratifs -->
  <circle cx="50" cy="70" r="6" fill="#4361ee" opacity="0.6">
    <animate attributeName="r" values="5;7;5" dur="2s" repeatCount="indefinite" />
  </circle>
  <circle cx="330" cy="200" r="8" fill="#7209b7" opacity="0.6">
    <animate attributeName="r" values="7;9;7" dur="3s" repeatCount="indefinite" />
  </circle>
  <circle cx="280" cy="50" r="4" fill="#4361ee" opacity="0.6">
    <animate attributeName="r" values="3;5;3" dur="2.5s" repeatCount="indefinite" />
  </circle>
  
  <!-- Flèche indiquant la progression -->
  <g transform="translate(200, 240)">
    <path d="M0,0 L15,15 L30,0 L15,5 Z" fill="#7209b7" opacity="0.8">
      <animateTransform attributeName="transform" type="translate" values="0,5;0,0;0,5" dur="2s" repeatCount="indefinite" />
    </path>
  </g>
</svg>
